<svg viewBox="0 0 66 85" width="32" height="32" fill="currentColor" xmlns="http://www.w3.org/2000/svg" xmlns:xlink="http://www.w3.org/1999/xlink">
  <path d="m46.0052123 35.5858019c3.6745283 0 6.6634434 2.9856132 6.6634434 6.6556604 0 3.6698113-2.9889151 6.6551886-6.6634434 6.6551886-3.6742925 0-6.6634434-2.9853773-6.6634434-6.6551886 0-3.6700472 2.9891509-6.6556604 6.6634434-6.6556604zm-25.4583491 0c3.6742925 0 6.6636793 2.9856132 6.6636793 6.6556604 0 3.6698113-2.9893868 6.6551886-6.6636793 6.6551886-3.6742924 0-6.6636792-2.9853773-6.6636792-6.6551886 0-3.6700472 2.9893868-6.6556604 6.6636792-6.6556604zm25.4583491 2.6700472c-2.2 0-3.9898585 1.7879717-3.9898585 3.9856132 0 2.1974056 1.7898585 3.9853773 3.9898585 3.9853773 2.2004717 0 3.9903302-1.7879717 3.9903302-3.9853773 0-2.1976415-1.7898585-3.9856132-3.9903302-3.9856132zm-25.4583491 0c-2.2002358 0-3.9900943 1.7879717-3.9900943 3.9856132 0 2.1974056 1.7898585 3.9853773 3.9900943 3.9853773 2.2002359 0 3.9900943-1.7879717 3.9900943-3.9853773 0-2.1976415-1.7898584-3.9856132-3.9900943-3.9856132zm22.3551887-22.5176651c3.2533019-.0375 6.5941038-.0474057 9.9075472.0535377 3.2136792.0983491 5.3476415 2.5459906 5.3476415 6.0492925v15.3523584c0 .7370283-.4985849 1.3349057-1.2367925 1.3349057-.7384434 0-1.2367924-.5978774-1.2367924-1.3349057v-15.3523584c0-.9823114-.3457548-3.2754717-2.8558963-3.3523585-3.2573113-.0992925-6.6306603-.0615566-9.8582547-.0240566-1.7247641.0193396-3.4681604.0386792-5.1896226.0386792l-2.8195755.0007075c-2.1087264 0-4.221934.0014151-6.3313679-.0011792l-5.8790095-.0025943c-.2625 0-.5308962-.0040095-.8007075-.0070755-1.853066-.0275943-3.5983491-.0483491-4.7316038 1.042217-.8209905.7900943-1.3735849 1.8818396-1.9582547 3.0384434-.5563679 1.0988207-1.1316038 2.2351415-1.9931604 3.2323113-1.4738207 1.7051887-3.98962261 2.4603773-5.8415094 2.7938679-2.47830189.4471698-3.51179246 1.2514151-4.2518868 3.3122642-.47075471 1.3101415-.45683962 2.7806603-.44198113 4.3365566.00235849.2768868.00518868.5528302.00518868.8273585-.00023585.385849-.01485849.8056603-.02995283 1.2433962-.05731132 1.6193396-.12806604 3.6370283.64764151 4.4398585.10589623.1091981.42830189.4462264 1.38726415.4462264h4.67877359c.73820753 0 1.33655663.6523585 1.33655663 1.3896226 0 .7370283-.5983491 1.3896227-1.33655663 1.3896227h-4.67900944c-1.38938679 0-2.50330188-.4813679-3.31084905-1.3169812-1.5634434-1.6179245-1.47051887-4.2898584-1.39575472-6.4134434.01438679-.4054245.02806604-.8082547.02877358-1.165566 0-.2650943-.00259434-.5396226-.00518868-.8075472-.01627358-1.7226415-.03325471-3.5073113.59882076-5.2672169 1.06415094-2.9639151 2.88773585-4.4259434 6.29410377-5.0400944 2.01650944-.3627358 3.54056601-1.0426887 4.29127361-1.9115566.6481132-.7492924 1.1254717-1.6936321 1.6306604-2.6931604.6603773-1.3037735 1.3417452-2.6518868 2.4893867-3.7568396 1.9247642-1.8525943 4.5268868-1.8167453 6.6221699-1.7893868.2575471.0037736.5132075.0073113.7641509.0073113l5.8785377-.0537735c2.1073114.0016509 4.2146227-.0549529 6.3235849-.0549529h2.8106133c1.7117924 0 3.4259433.0363208 5.1410377.0165095zm-6.7495283 27.4674056c.7382075 0 1.3367924.6525944 1.3367924 1.3896227s-.5985849 1.3896226-1.3367924 1.3896226h-5.3462264c-.7384434 0-1.3365566-.6525943-1.3365566-1.3896226s.5981132-1.3896227 1.3365566-1.3896227zm-6.4220755-22.4193868c1.5787736 0 3.0323113.718868 3.9877359 1.9728774l4.9162735 6.3205189c1.6646227 2.1851415 1.2096699 5.4313679-.9849056 7.0995283-.8945755.6797169-1.9533019 1.0389151-3.0608491 1.0389151-1.55 0-2.9785377-.7077831-3.9193396-1.9431604l-4.9207547-6.4591981c-1.6716981-2.1955189-1.2443396-5.3384434.9525943-7.0084906.8794812-.6683962 1.9271227-1.0209906 3.0292453-1.0209906zm39.1698585 11.6111085c.7382076 0 1.3365566.6525944 1.3365566 1.3896227s-.598349 1.3896226-1.3365566 1.3896226h-4.6783019c-.7379717 0-1.3367924-.6525943-1.3367924-1.3896226s.5988207-1.3896227 1.3367924-1.3896227zm-33.9903774-3.7537971-3.757783 2.8554245 1.6419812 2.1554245c.7511792.9875 2.2306603 1.1650943 3.2367924.3995283 1.0415094-.7910377 1.2632076-2.3242924.4839623-3.3471698zm35.326934-1.4960378c.7382076 0 1.3370283.6525944 1.3370283 1.3896227 0 .7372641-.5988207 1.3896226-1.3370283 1.3896226h-6.0148585c-.7379717 0-1.3367924-.6523585-1.3367924-1.3896226 0-.7370283.5988207-1.3896227 1.3367924-1.3896227zm-40.5064151-3.6912264c-.5129717 0-1.0004717.1641509-1.410849.4757075-1.0235849.7783019-1.2228774 2.243868-.4436321 3.2665095l1.6575472 2.1757075 3.7365566-2.8391509-1.6707548-2.1481132c-.4537735-.5957547-1.1320754-.9306604-1.8688679-.9306604zm43.1799764-2.1760849c.7382076 0 1.3365566.4981132 1.3365566 1.2351415 0 .7372642-.598349 1.2353774-1.3365566 1.2353774h-8.6884434c-.7379717 0-1.3367924-.4981132-1.3367924-1.2353774 0-.7370283.5988207-1.2351415 1.3367924-1.2351415z" fill="#0af"/>
</svg>
