<?xml version="1.0" standalone="no"?>
<!DOCTYPE svg PUBLIC "-//W3C//DTD SVG 20010904//EN"
 "http://www.w3.org/TR/2001/REC-SVG-20010904/DTD/svg10.dtd">
<svg version="1.0" xmlns="http://www.w3.org/2000/svg"
 width="512.000000pt" height="512.000000pt" viewBox="0 0 512.000000 512.000000"
 preserveAspectRatio="xMidYMid meet">
<metadata>
Created by potrace 1.11, written by Peter Selinger 2001-2013
</metadata>
<g transform="translate(0.000000,512.000000) scale(0.100000,-0.100000)"
fill="#000000" stroke="none">
<path d="M2196 3703 c-1 -1 -202 -4 -446 -6 -475 -5 -503 -8 -601 -59 -72 -36
-158 -133 -218 -244 -30 -54 -70 -128 -89 -163 -74 -137 -145 -183 -353 -232
-168 -39 -247 -76 -320 -149 -81 -81 -141 -210 -156 -338 -9 -74 -10 -576 -1
-622 24 -131 97 -221 206 -255 44 -14 95 -18 241 -20 102 0 200 2 216 7 52 13
81 89 55 139 -23 43 -58 49 -264 49 l-196 0 -30 28 c-46 42 -57 110 -54 352 4
264 8 318 34 393 52 153 103 188 360 247 77 17 176 57 235 95 95 61 141 120
240 311 106 202 159 253 281 268 27 3 567 7 1201 8 911 2 1155 0 1164 -9 7 -7
20 -13 29 -13 27 0 71 -55 90 -111 17 -48 18 -104 19 -615 0 -398 4 -569 12
-587 11 -24 46 -47 74 -47 27 0 63 23 74 47 8 17 11 196 10 611 -1 555 -2 590
-20 645 -47 139 -141 226 -276 258 -33 7 -282 11 -781 12 -404 1 -735 1 -736
0z"/>
<path d="M1971 3344 c-67 -18 -103 -37 -152 -81 -123 -111 -149 -295 -61 -433
64 -100 384 -510 419 -537 61 -46 113 -65 186 -69 251 -12 428 219 352 459
-14 46 -92 161 -192 282 -5 6 -55 69 -111 142 -109 140 -150 181 -210 212 -66
33 -158 43 -231 25z m146 -191 c30 -14 172 -173 173 -193 0 -3 -51 -44 -112
-90 -62 -47 -119 -91 -127 -98 -11 -10 -25 3 -82 79 -96 129 -104 194 -29 269
52 52 114 63 177 33z m344 -410 c91 -115 105 -162 74 -236 -15 -36 -72 -88
-104 -95 -38 -8 -95 -1 -122 15 -24 14 -124 133 -152 179 -3 6 34 40 86 79 51
38 107 82 125 97 18 15 34 28 36 28 2 0 28 -30 57 -67z"/>
<path d="M4500 3320 c-63 -3 -121 -9 -128 -14 -25 -15 -41 -67 -30 -97 20 -58
26 -59 390 -59 246 1 337 4 349 13 51 39 49 114 -4 141 -26 13 -69 17 -247 19
-118 1 -267 0 -330 -3z"/>
<path d="M4379 2898 c-54 -33 -55 -121 -1 -156 23 -15 57 -17 255 -18 216 0
231 1 260 20 39 26 51 68 32 112 -23 55 -37 58 -288 59 -201 1 -232 -1 -258
-17z"/>
<path d="M4390 2542 c-57 -28 -69 -106 -24 -152 24 -25 26 -25 219 -27 178 -1
196 0 219 18 28 22 45 65 37 96 -8 30 -47 73 -68 74 -133 7 -361 2 -383 -9z"/>
<path d="M1365 2332 c-96 -10 -213 -70 -282 -146 -143 -156 -165 -370 -59
-551 53 -89 170 -177 271 -204 202 -53 421 39 522 219 27 49 34 68 50 130 2 8
5 39 7 68 17 281 -226 512 -509 484z m147 -202 c147 -55 219 -227 153 -368
-59 -127 -193 -187 -330 -148 -76 23 -153 97 -177 171 -70 221 139 426 354
345z"/>
<path d="M3100 2328 c-30 -5 -89 -25 -130 -45 -243 -118 -329 -414 -188 -648
104 -172 317 -256 513 -202 210 58 345 247 332 466 -6 119 -40 200 -119 286
-106 115 -249 165 -408 143z m181 -202 c57 -27 103 -71 134 -127 25 -46 29
-65 28 -124 -1 -80 -16 -122 -66 -180 -54 -63 -117 -90 -207 -89 -118 1 -198
54 -248 163 -44 97 -20 222 60 300 31 31 90 64 133 75 37 9 131 -1 166 -18z"/>
<path d="M2078 1793 c-58 -36 -60 -115 -5 -157 25 -19 41 -20 229 -21 224 0
251 5 272 57 19 44 11 78 -24 111 l-30 27 -208 0 c-176 0 -211 -3 -234 -17z"/>
</g>
</svg>
